<svg width="1200" height="330" preserveAspectRatio="xMidYMid" version="1.1" viewBox="0 0 1200 330" xml:space="preserve" xmlns="http://www.w3.org/2000/svg" xmlns:xlink="http://www.w3.org/1999/xlink"><defs><linearGradient id="linearGradient19" x1="634.51" x2="645.72" y1="-10.55" y2="1194.6" gradientTransform="matrix(.27336 0 0 .27336 -10.973 .98705)" gradientUnits="userSpaceOnUse"><stop style="stop-color:#69ceff" offset="0"/><stop style="stop-color:#0100b7" offset="1"/></linearGradient></defs><path d="m204.79 0.98702c-54.59-0.01228-61.93 3.0427-80.143 33.36-10.043 16.717-14.977 15.057 44.765 15.057 56.768 0 51.154 0.70865 56.398-7.1174 12.537-18.71 41.664-1.5426 31.24 18.413-6.3585 12.173-22.049 13.71-30.805 3.0181-1.5742-1.9223-3.5553-4.3468-4.4025-5.3876-2.9424-3.6148-131.79-1.9722-144.11 1.8371-34.271 10.595-59.949 36.42-72.644 73.061-20.816 60.076 24.985 133.22 87.069 139.06 10.931 1.0272 11.363 2.5838-9.0159-32.421-9.3543-16.068-22.92-39.531-30.146-52.14l-13.138-22.926 16.998-29.621 16.999-29.62 71.942-0.45007 5.9551 7.0699c-1.855 1.9942-3.0144 4.6498-3.0144 7.5707 0 3.1728 1.3613 6.035 3.5072 8.0704l-12.565 20.065c-2.3249-1.0461-4.8927-1.6407-7.5974-1.6407-6.7446 0.29036-10.662 3.2068-14.303 6.3795l-4.907-2.2942c1.9553-3.4706 3.7091-6.6304 6.0741-10.714 7.6501-13.208 13.909-24.536 13.909-25.172 0-0.82662-7.6465-1.157-26.755-1.157h-26.755l-5.5493 9.5301c-3.0521 5.2417-9.5934 16.45-14.536 24.907-11.097 18.989-11.416 14.809 3.0304 39.745 21.892 37.79 33.409 57.73 49.688 86.032 26.047 45.285 32.268 51.562 53.556 54.038 28.305 3.2931 85.818 0.73036 95.732-4.2658 44.802-22.577 34.103-91.261-15.212-97.664-6.5417-0.84925-25.673-1.1325-44.926-1.1009l-0.56593-17.083c7.8745-0.68093 14.414-6.155 16.73-13.494l59.683 11.401c-0.024 0.3435-0.10412 0.67237-0.10412 1.0219 0 8.0774 6.5563 14.71 14.604 14.71 8.048 0 14.603-6.6326 14.603-14.71 0-8.0773-6.5552-14.71-14.603-14.71-6.63 0-12.184 4.5282-13.958 10.63l-59.55-11.376c0.1355-0.92612 0.23065-1.8656 0.23065-2.8281 0-2.2558-0.40543-4.416-1.1137-6.4351l29.975-12.025c3.6761 6.1747 10.365 10.342 18.014 10.342 11.588 0 21.015-9.5339 21.015-21.184 0-8.6153-5.1619-16.059-12.534-19.36l3.9124-10.582c6.4624 1.0804 12.842-3.834 12.842-10.942 0-6.0988-4.9613-11.124-11.048-11.124s-11.05 5.025-11.05 11.124c0 4.3874 2.5886 8.1873 6.2962 9.9924l-3.8777 10.488c-1.773-0.49242-3.6296-0.77789-5.5552-0.77789-5.459 0-10.422 2.1326-14.163 5.5883l-2.5339-2.0058c2.0291-2.5289 3.2974-5.6984 3.2974-9.1788 0-8.0774-6.5552-14.71-14.603-14.71-6.6784 0-12.267 4.5938-13.997 10.764l-18.531-2.8168 1.5291-20.676c27.187-0.3297 43.583-0.72357 45.785-1.4591 45.79-15.295 51.274-75.563 8.7575-96.249-10.811-5.2599-16.41-5.8471-55.827-5.8563zm-1.8318 103.6-1.4917 20.177-30.662-4.6599c0.17171-5.7694-4.291-11.476-11.014-11.476-2.0572 0-3.9634 0.61114-5.6155 1.6065l-4.3368-5.1489 10.96-0.0683c20.655-0.12925 29.55-0.28582 42.16-0.42979zm76.305 8.3875c2.7024 0 4.8387 2.1364 4.8387 4.9134 0 2.777-2.1365 4.9151-4.8387 4.9151s-4.8398-2.138-4.8398-4.9151c0-2.777 2.1374-4.9134 4.8398-4.9134zm-119.47 1.8633c2.7024 0 4.8403 2.1366 4.8403 4.9134 0 2.7769-2.1381 4.9151-4.8403 4.9151-2.7022 0-4.8398-2.138-4.8398-4.9151 0-2.777 2.1374-4.9134 4.8398-4.9134zm10.459 8.3219 30.987 4.7095-3.017 40.8c-4.2459 0.15377-8.144 1.6918-11.264 4.19l-2.8585-2.921c1.5272-1.9104 2.481-4.3001 2.481-6.9198 0-6.0989-4.963-11.124-11.05-11.124-6.0871 0-11.05 5.0249-11.05 11.124 0 6.0987 4.9628 11.125 11.05 11.125 2.3587 0 4.5358-0.7705 6.3336-2.0496l2.8366 2.8991c-3.1396 3.462-5.0731 8.0486-5.0731 13.08 0 10.195 7.8777 18.608 17.834 19.364l0.56593 17.06c-24.111 0.0941-47.65 0.74056-47.644 1.8681 4e-3 0.99168 5.7167 11.771 12.696 23.955l12.69 22.152 45.649 0.55418 2.6465-4.1922c10.678-16.915 34.539-10.926 34.715 8.7127 0.17776 19.774-23.763 24.955-34.872 7.5466l-2.4655-3.8638h-24.555c-22.102 0-24.712-0.18006-26.123-1.803-0.86216-0.9917-6.4431-10.38-12.402-20.864-5.9588-10.483-15.137-26.48-20.395-35.546-5.2588-9.0668-11.847-20.426-14.642-25.243-2.5667-4.4247-3.0994-5.4143-5.0192-8.7404l5.0368-7.1959c2.6136 1.3989 5.5864 2.2007 8.7442 2.2007 3.0019 0 5.8328-0.73481 8.3512-2.0074l15.808 23.777c-2.0617 2.0264-3.3529 4.8405-3.3529 7.9417 0 6.0987 4.9629 11.124 11.05 11.124 6.0872 0 11.05-5.025 11.05-11.124 0-6.0988-4.9629-11.124-11.05-11.124-1.8793 0-3.6242 0.52304-5.1761 1.3646l-15.682-23.585c4.6876-3.4444 7.7527-9.0048 7.7527-15.263 0-6.5585-3.3589-12.361-8.4329-15.753l12.387-19.782c1.5086 0.78253 3.1921 1.268 4.9994 1.268 4.8954 0 9.0144-3.2721 10.459-7.7169zm66.825 0.33474c4.6616 0 8.3929 3.746 8.3929 8.4996 0 4.7537-3.7311 8.4996-8.3929 8.4996-4.6617 0-8.3923-3.746-8.3923-8.4996 0-4.7537 3.7308-8.4996 8.3923-8.4996zm-32.759 4.8424 18.245 2.7725c-0.49372 8.2242 5.8266 15.595 14.514 15.595 3.459 0 6.5996-1.2754 9.1051-3.3139l2.5937 2.0544c-2.9413 3.6471-4.7122 8.2864-4.7122 13.327 0 2.8507 0.57124 5.5723 1.5937 8.0608l-29.81 11.958c-2.9094-5.3598-8.2548-9.1913-14.523-9.9865zm60.761 15.464c8.2011 0 14.804 6.6472 14.804 14.973 0 8.3254-6.6034 14.972-14.804 14.972s-14.805-6.6466-14.805-14.972c0-8.3254 6.6044-14.973 14.805-14.973zm-132.99 8.6566c6.9507 0 12.541 5.6223 12.541 12.686 0 7.0635-5.5906 12.685-12.541 12.685-6.9507 0-12.54-5.6218-12.54-12.685 0-7.0637 5.589-12.686 12.54-12.686zm-21.017 1.0614 4.2498 3.2328c-1.2568 2.5347-1.9824 5.3793-1.9824 8.3918 0 6.1004 2.9139 11.536 7.4025 14.997l-4.142 5.9188c-7.8551-13.65-11.556-20.296-11.556-21.176 0-0.41207 2.5842-5.1901 6.0282-11.365zm64.46 4.5867c2.7024 0 4.8398 2.1366 4.8398 4.9135 0 2.7769-2.1376 4.9151-4.8398 4.9151-2.7022 0-4.8403-2.138-4.8403-4.9151 0-2.777 2.1379-4.9135 4.8403-4.9135zm23.384 16.74c7.2475 0 13.079 5.8653 13.079 13.228 0 7.363-5.8315 13.228-13.079 13.228-7.2474 0-13.077-5.8654-13.077-13.228 0-7.363 5.8293-13.228 13.077-13.228zm92.567 23.012c4.6617 0 8.3928 3.7466 8.3928 8.5002 0 4.7537-3.7312 8.4996-8.3928 8.4996-4.6617 0-8.3945-3.7459-8.3945-8.4996 0-4.7536 3.7327-8.5002 8.3945-8.5002zm-127.54 10.98c2.7024 0 4.8398 2.1364 4.8398 4.9135 0 2.777-2.1374 4.9134-4.8398 4.9134-2.7024 0-4.8398-2.1365-4.8398-4.9134 0-2.7771 2.1374-4.9135 4.8398-4.9135zm520.86 119.71h46.794v-327.56h-46.794zm300.89-297.14c-6.5512-17.782-23.865-29.948-43.518-29.948-20.122 0-37.435 12.634-43.987 29.948l-119.79 297.61h50.07l113.71-280.76 113.24 280.76h50.538zm167.52 297.14h46.794v-327.56h-46.794zm-753.85 0v-327.56h-46.794v327.56zm163.78-187.18h-128.68l-11.699 46.794h140.38v140.38h46.794v-327.56h-46.794z" style="fill:url(#linearGradient19);stroke-linecap:square;stroke-linejoin:round;stroke-width:2.1326"/></svg>
