<svg width="1200" height="1200" version="1.1" viewBox="0 0 1200 1200" xml:space="preserve" xmlns="http://www.w3.org/2000/svg" xmlns:xlink="http://www.w3.org/1999/xlink"><defs><linearGradient id="linearGradient19" x1="634.51" x2="645.72" y1="-10.55" y2="1194.6" gradientUnits="userSpaceOnUse"><stop style="stop-color:#69ceff" offset="0"/><stop style="stop-color:#0100b7" offset="1"/></linearGradient></defs><path d="m789.31-1.1469e-4c-199.7-0.044819-226.55 11.131-293.18 122.04-36.738 61.154-54.789 55.082 163.76 55.082 207.67 0 187.13 2.5924 206.32-26.037 45.864-68.445 152.42-5.6432 114.29 67.359-23.261 44.533-80.659 50.156-112.69 11.041-5.7589-7.0323-13.006-15.902-16.105-19.709-10.764-13.224-482.1-7.215-527.18 6.7207-125.37 38.761-219.31 133.23-265.75 267.27-76.15 219.77 91.399 487.36 318.52 508.7 39.988 3.7576 41.57 9.4524-32.982-118.61-34.22-58.78-83.847-144.61-110.28-190.74l-48.062-83.869 62.184-108.36 62.186-108.36 263.18-1.6465 21.785 25.863c-6.7859 7.2954-11.027 17.01-11.027 27.695 0 11.607 4.98 22.077 12.83 29.523l-45.965 73.402c-8.5052-3.827-17.899-6.002-27.793-6.002-24.673 1.0622-39.004 11.731-52.324 23.338l-17.951-8.3926c7.1531-12.696 13.569-24.256 22.221-39.193 27.986-48.318 50.883-89.757 50.883-92.086 0-3.024-27.973-4.2324-97.875-4.2324h-97.875l-20.301 34.863c-11.165 19.176-35.095 60.179-53.176 91.117-40.597 69.466-41.762 54.175 11.086 145.4 80.088 138.24 122.22 211.19 181.77 314.72 95.288 165.66 118.05 188.62 195.92 197.69 103.55 12.047 313.94 2.6718 350.21-15.606 163.9-82.593 124.76-333.86-55.65-357.28-23.931-3.1068-93.919-4.1431-164.35-4.0274l-2.0703-62.494c28.807-2.491 52.729-22.516 61.201-49.363l218.33 41.709c-0.088 1.2566-0.3809 2.4597-0.3809 3.7383 0 29.549 23.984 53.812 53.426 53.812 29.442 0 53.422-24.264 53.422-53.812 0-29.549-23.981-53.812-53.422-53.812-24.254 0-44.572 16.565-51.06 38.889l-217.85-41.617c0.49568-3.388 0.84375-6.8246 0.84375-10.346 0-8.2524-1.4831-16.155-4.0742-23.541l109.66-43.99c13.448 22.589 37.917 37.834 65.9 37.834 42.392 0 76.877-34.877 76.877-77.496 0-31.517-18.884-58.749-45.854-70.822l14.312-38.713c23.641 3.9522 46.98-14.026 46.98-40.027 0-22.311-18.15-40.693-40.418-40.693s-40.424 18.383-40.424 40.693c0 16.05 9.4696 29.951 23.033 36.555l-14.186 38.367c-6.4859-1.8014-13.278-2.8457-20.322-2.8457-19.97 0-38.128 7.8016-51.811 20.443l-9.2695-7.3379c7.4229-9.2512 12.062-20.846 12.062-33.578 0-29.549-23.981-53.812-53.422-53.812-24.431 0-44.877 16.805-51.205 39.377l-67.791-10.305 5.5938-75.637c99.457-1.2061 159.44-2.647 167.49-5.3379 167.51-55.952 187.57-276.43 32.037-352.1-39.549-19.242-60.034-21.39-204.23-21.424zm-6.7012 378.98-5.457 73.811-112.17-17.047c0.62814-21.106-15.698-41.982-40.293-41.982-7.5258 0-14.499 2.2357-20.543 5.877l-15.865-18.836 40.096-0.25c75.562-0.47283 108.1-1.0456 154.23-1.5723zm279.14 30.684c9.886 0 17.701 7.8155 17.701 17.975 0 10.159-7.8159 17.98-17.701 17.98s-17.705-7.8214-17.705-17.98c0-10.159 7.8191-17.975 17.705-17.975zm-437.06 6.8164c9.8859 0 17.707 7.8161 17.707 17.975 0 10.158-7.8217 17.98-17.707 17.98-9.8854 0-17.705-7.8214-17.705-17.98 0-10.159 7.819-17.975 17.705-17.975zm38.262 30.443 113.36 17.229-11.037 149.26c-15.533 0.56253-29.793 6.189-41.207 15.328l-10.457-10.686c5.5869-6.9887 9.0762-15.731 9.0762-25.314 0-22.311-18.156-40.693-40.424-40.693-22.268 0-40.424 18.382-40.424 40.693 0 22.31 18.155 40.699 40.424 40.699 8.6287 0 16.593-2.8187 23.17-7.498l10.377 10.605c-11.485 12.665-18.559 29.444-18.559 47.85 0 37.294 28.819 68.072 65.24 70.838l2.0703 62.41c-88.206 0.34436-174.32 2.7092-174.29 6.834 0.0132 3.6278 20.913 43.063 46.445 87.633l46.424 81.037 166.99 2.0274 9.6816-15.336c39.062-61.879 126.35-39.971 127 31.873 0.6503 72.337-86.932 91.291-127.57 27.607l-9.0195-14.135h-89.828c-80.854 0-90.401-0.6587-95.562-6.5957-3.154-3.6279-23.57-37.973-45.369-76.324-21.799-38.351-55.374-96.869-74.611-130.04-19.238-33.169-43.341-74.723-53.562-92.344-9.3896-16.187-11.338-19.807-18.361-31.975l18.426-26.324c9.5614 5.1176 20.436 8.0508 31.988 8.0508 10.982 0 21.338-2.6881 30.551-7.3438l57.83 86.982c-7.5421 7.4131-12.266 17.708-12.266 29.053 0 22.311 18.156 40.693 40.424 40.693 22.268 0 40.424-18.383 40.424-40.693 0-22.311-18.156-40.693-40.424-40.693-6.8748 0-13.258 1.9134-18.936 4.9922l-57.367-86.281c17.148-12.601 28.361-32.942 28.361-55.834 0-23.993-12.288-45.219-30.85-57.627l45.314-72.367c5.5187 2.8627 11.678 4.6387 18.289 4.6387 17.908 0 32.977-11.97 38.262-28.23zm244.46 1.2246c17.053 0 30.703 13.704 30.703 31.094 0 17.39-13.649 31.094-30.703 31.094-17.054 0-30.701-13.704-30.701-31.094 0-17.39 13.648-31.094 30.701-31.094zm-119.84 17.715 66.744 10.143c-1.8062 30.086 21.315 57.049 53.096 57.049 12.654 0 24.143-4.6657 33.309-12.123l9.4883 7.5156c-10.76 13.342-17.238 30.313-17.238 48.754 0 10.429 2.0897 20.385 5.8301 29.488l-109.05 43.746c-10.643-19.608-30.198-33.624-53.127-36.533zm222.28 56.57c30.002 0 54.158 24.317 54.158 54.773 0 30.456-24.157 54.771-54.158 54.771-30.001 0-54.162-24.315-54.162-54.771 0-30.456 24.16-54.773 54.162-54.773zm-486.52 31.668c25.427 0 45.879 20.568 45.879 46.408 0 25.84-20.452 46.406-45.879 46.406-25.427 0-45.873-20.566-45.873-46.406 0-25.841 20.446-46.408 45.873-46.408zm-76.887 3.8828 15.547 11.826c-4.5975 9.2724-7.252 19.679-7.252 30.699 0 22.317 10.66 42.201 27.08 54.863l-15.152 21.652c-28.736-49.936-42.275-74.246-42.275-77.467 0-1.5074 9.4536-18.987 22.053-41.574zm235.81 16.779c9.8859 0 17.705 7.816 17.705 17.975 0 10.158-7.8198 17.98-17.705 17.98-9.8854 0-17.707-7.8213-17.707-17.98 0-10.159 7.821-17.975 17.707-17.975zm85.545 61.238c26.513 0 47.846 21.457 47.846 48.393 0 26.935-21.333 48.393-47.846 48.393-26.513 0-47.838-21.457-47.838-48.393 0-26.936 21.325-48.393 47.838-48.393zm338.63 84.184c17.054 0 30.703 13.706 30.703 31.096 0 17.39-13.65 31.094-30.703 31.094-17.054 0-30.709-13.703-30.709-31.094 0-17.39 13.655-31.096 30.709-31.096zm-466.56 40.166c9.886 0 17.705 7.8154 17.705 17.975 0 10.159-7.819 17.975-17.705 17.975-9.886 0-17.705-7.8157-17.705-17.975 0-10.159 7.8191-17.975 17.705-17.975z" style="fill:url(#linearGradient19);stroke-linecap:square;stroke-linejoin:round;stroke-width:7.8014"/></svg>
