<?xml version="1.0" encoding="UTF-8" standalone="no"?>
<!-- Created with Inkscape (http://www.inkscape.org/) -->

<svg
   width="1200"
   height="1200"
   viewBox="0 0 1200 1200"
   version="1.1"
   id="svg5"
   inkscape:version="1.3.2 (091e20ef0f, 2023-11-25)"
   sodipodi:docname="inkscape-icon_1200x1200.svg"
   xml:space="preserve"
   xmlns:inkscape="http://www.inkscape.org/namespaces/inkscape"
   xmlns:sodipodi="http://sodipodi.sourceforge.net/DTD/sodipodi-0.dtd"
   xmlns:xlink="http://www.w3.org/1999/xlink"
   xmlns="http://www.w3.org/2000/svg"
   xmlns:svg="http://www.w3.org/2000/svg"><sodipodi:namedview
     id="namedview7"
     pagecolor="#ffffff"
     bordercolor="#666666"
     borderopacity="1.0"
     inkscape:pageshadow="2"
     inkscape:pageopacity="0.0"
     inkscape:pagecheckerboard="true"
     inkscape:document-units="px"
     showgrid="false"
     units="px"
     width="1200px"
     inkscape:zoom="0.37371282"
     inkscape:cx="207.37849"
     inkscape:cy="559.25296"
     inkscape:window-width="1920"
     inkscape:window-height="971"
     inkscape:window-x="0"
     inkscape:window-y="40"
     inkscape:window-maximized="1"
     inkscape:current-layer="svg5"
     inkscape:showpageshadow="0"
     inkscape:deskcolor="#505050" /><defs
     id="defs2"><linearGradient
       id="linearGradient18"
       inkscape:collect="always"><stop
         style="stop-color:#69ceff;stop-opacity:1;"
         offset="0"
         id="stop18" /><stop
         style="stop-color:#0100b7;stop-opacity:1;"
         offset="1"
         id="stop19" /></linearGradient><linearGradient
       inkscape:collect="always"
       xlink:href="#linearGradient18"
       id="linearGradient19"
       x1="634.51007"
       y1="-10.549881"
       x2="645.71576"
       y2="1194.5995"
       gradientUnits="userSpaceOnUse" /></defs><path
     id="rect18"
     style="fill:url(#linearGradient19);stroke-width:7.8014;stroke-linecap:square;stroke-linejoin:round"
     d="M 789.30757,-1.1468642e-4 C 589.60392,-0.04493365 562.75442,11.130924 496.12593,122.03895 c -36.73838,61.15365 -54.7886,55.08203 163.75977,55.08203 207.66986,0 187.13208,2.59241 206.3164,-26.03711 45.86419,-68.444918 152.4162,-5.64321 114.28521,67.35938 -23.26104,44.53292 -80.65929,50.15631 -112.69146,11.04102 -5.75892,-7.03234 -13.00606,-15.9015 -16.10546,-19.70899 -10.76395,-13.22382 -482.10284,-7.21495 -527.17774,6.7207 C 199.14199,255.25652 105.2061,349.73083 58.762655,483.76942 -17.387073,703.54081 150.16212,971.13017 377.28218,992.47255 c 39.98772,3.75759 41.5703,9.45235 -32.98242,-118.60547 C 310.07959,815.08747 260.45275,729.25466 234.01851,683.12684 l -48.0625,-83.86914 62.18359,-108.35937 62.18555,-108.35742 263.17969,-1.64649 21.78515,25.86328 c -6.78591,7.29536 -11.02734,17.01003 -11.02734,27.69531 0,11.60697 4.97998,22.07745 12.83008,29.52344 l -45.96484,73.40235 c -8.50519,-3.827 -17.89869,-6.00196 -27.79297,-6.00196 -24.6733,1.06221 -39.00363,11.73121 -52.32422,23.33789 l -17.95117,-8.39257 c 7.15308,-12.69617 13.56876,-24.25575 22.2207,-39.19336 27.98597,-48.31792 50.88281,-89.75721 50.88281,-92.08594 0,-3.024 -27.97267,-4.23242 -97.875,-4.23242 h -97.875 l -20.30078,34.86328 c -11.16536,19.17556 -35.0951,60.17903 -53.17578,91.11719 -40.59714,69.4664 -41.76177,54.17501 11.08594,145.39843 80.08765,138.24313 122.21997,211.1914 181.77148,314.72461 95.2876,165.66175 118.04512,188.62485 195.92188,197.68555 103.54577,12.0471 313.94185,2.6718 350.21093,-15.6055 163.89639,-82.5926 124.75869,-333.85656 -55.65039,-357.27731 -23.93115,-3.10675 -93.91911,-4.14312 -164.35156,-4.02735 l -2.07031,-62.49414 c 28.80697,-2.49102 52.7287,-22.51637 61.20117,-49.36328 l 218.33398,41.70899 c -0.088,1.25664 -0.3809,2.4597 -0.3809,3.73828 0,29.54888 23.9844,53.8125 53.4258,53.8125 29.4415,0 53.4219,-24.26362 53.4219,-53.8125 0,-29.54889 -23.9807,-53.8125 -53.4219,-53.8125 -24.2543,0 -44.5724,16.56536 -51.0605,38.88867 L 837.52437,694.73817 c 0.49568,-3.38797 0.84375,-6.82465 0.84375,-10.3457 0,-8.25237 -1.48314,-16.15465 -4.07422,-23.54102 l 109.65625,-43.99023 c 13.44794,22.58869 37.91666,37.83398 65.90035,37.83398 42.3922,0 76.877,-34.87731 76.877,-77.49609 0,-31.51678 -18.8835,-58.74916 -45.8535,-70.82227 l 14.3125,-38.71289 c 23.6409,3.95224 46.9804,-14.02565 46.9804,-40.02734 0,-22.31078 -18.1497,-40.69336 -40.4179,-40.69336 -22.2682,0 -40.4239,18.38258 -40.4239,40.69336 0,16.0502 9.4696,29.95114 23.0332,36.55469 l -14.1855,38.36718 c -6.4859,-1.80138 -13.2778,-2.8457 -20.3223,-2.8457 -19.97019,0 -38.12789,7.80158 -51.81051,20.44336 l -9.26953,-7.33789 c 7.42286,-9.25119 12.0625,-20.84609 12.0625,-33.57813 0,-29.54891 -23.98051,-53.8125 -53.42187,-53.8125 -24.43117,0 -44.87727,16.80508 -51.20508,39.37696 l -67.79102,-10.30469 5.59375,-75.63672 c 99.45714,-1.20612 159.43618,-2.64701 167.49219,-5.33789 C 1129.0135,317.57333 1149.0741,97.098479 993.53801,21.423713 953.98945,2.1816973 933.50441,0.03377527 789.30757,-1.1468642e-4 Z M 782.6064,378.97841 777.14937,452.78895 664.97945,435.74208 c 0.62814,-21.10582 -15.69756,-41.98242 -40.29297,-41.98242 -7.5258,0 -14.49892,2.2357 -20.54297,5.87695 l -15.86523,-18.83594 40.0957,-0.25 c 75.56208,-0.47283 108.10186,-1.04559 154.23242,-1.57226 z M 1061.749,409.662 c 9.886,0 17.7011,7.81552 17.7011,17.97461 0,10.15911 -7.8159,17.98047 -17.7011,17.98047 -9.8852,0 -17.7051,-7.82136 -17.7051,-17.98047 0,-10.15909 7.8191,-17.97461 17.7051,-17.97461 z m -437.06252,6.81641 c 9.88593,0 17.70703,7.81612 17.70703,17.9746 0,10.15846 -7.8217,17.98047 -17.70703,17.98047 -9.88539,0 -17.70508,-7.82139 -17.70508,-17.98047 0,-10.15913 7.81899,-17.9746 17.70508,-17.9746 z m 38.26172,30.44336 113.35937,17.22851 -11.03711,149.25781 c -15.53261,0.56253 -29.79255,6.18903 -41.20703,15.32813 L 713.6064,618.05067 c 5.58692,-6.98872 9.0762,-15.73096 9.07617,-25.31445 0,-22.31127 -18.15573,-40.69336 -40.42383,-40.69336 -22.26822,0 -40.42382,18.38243 -40.42382,40.69336 0,22.31049 18.1551,40.69922 40.42382,40.69922 8.62869,0 16.59314,-2.81866 23.16993,-7.49805 l 10.37695,10.60547 c -11.48541,12.66489 -18.55859,29.44357 -18.55859,47.84961 0,37.29421 28.81855,68.07164 65.24023,70.83789 l 2.07031,62.41015 c -88.2055,0.34436 -174.31515,2.70918 -174.29492,6.83399 0.0132,3.62782 20.913,43.06257 46.44531,87.63281 l 46.42383,81.03711 83.4961,1.01367 83.49804,1.01368 9.68164,-15.33594 c 39.06236,-61.87852 126.35054,-39.97101 126.99614,31.87307 0.6503,72.3373 -86.93162,91.2906 -127.5684,27.6074 l -9.01953,-14.1348 h -89.82813 c -80.85372,0 -90.40094,-0.6587 -95.5625,-6.5957 -3.15397,-3.6279 -23.57026,-37.97306 -45.36914,-76.32419 -21.79889,-38.35114 -55.37362,-96.86855 -74.61133,-130.03711 -19.23782,-33.16855 -43.34094,-74.72297 -53.5625,-92.34375 -9.38961,-16.18667 -11.33828,-19.80673 -18.36133,-31.97461 l 18.42578,-26.32422 c 9.56135,5.1176 20.43632,8.05078 31.98829,8.05078 10.98158,0 21.33772,-2.68813 30.55078,-7.34375 l 57.83008,86.98242 c -7.54213,7.41307 -12.26563,17.70782 -12.26563,29.05274 0,22.31054 18.15565,40.69336 40.42383,40.69336 22.26826,0 40.42383,-18.38282 40.42383,-40.69336 0,-22.31088 -18.15557,-40.69336 -40.42383,-40.69336 -6.87484,0 -13.25803,1.91339 -18.93555,4.99219 l -57.36719,-86.28125 c 17.14847,-12.60053 28.36133,-32.94157 28.36133,-55.83399 0,-23.99268 -12.28753,-45.21901 -30.84961,-57.62695 l 45.31446,-72.36719 c 5.51868,2.86269 11.67756,4.63867 18.28906,4.63867 17.90844,0 32.97682,-11.97009 38.26172,-28.23046 z m 244.46289,1.2246 c 17.05341,0 30.70312,13.70358 30.70312,31.09375 0,17.3901 -13.64927,31.09375 -30.70312,31.09375 -17.05367,0 -30.70117,-13.70362 -30.70117,-31.09375 0,-17.39017 13.64797,-31.09375 30.70117,-31.09375 z m -119.83985,17.71485 66.74415,10.14258 c -1.80616,30.08598 21.31525,57.04882 53.0957,57.04882 12.65371,0 24.14286,-4.66571 33.30859,-12.12304 l 9.48828,7.51562 c -10.75987,13.34214 -17.23828,30.31349 -17.23828,48.75391 0,10.4286 2.08974,20.38467 5.83008,29.48828 L 829.74898,650.43348 C 819.10585,630.82592 799.551,616.80945 776.62203,613.90028 Z m 222.27926,56.57031 c 30.0017,0 54.1582,24.31702 54.1582,54.77344 0,30.45648 -24.1568,54.77148 -54.1582,54.77148 -30.00139,0 -54.16207,-24.315 -54.16207,-54.77148 0,-30.45642 24.16048,-54.77344 54.16207,-54.77344 z M 523.33492,554.0995 c 25.42729,0 45.8789,20.56787 45.8789,46.4082 0,25.83992 -20.45161,46.40625 -45.8789,46.40625 -25.42726,0 -45.87305,-20.56589 -45.87305,-46.40625 0,-25.8407 20.44579,-46.4082 45.87305,-46.4082 z m -76.88672,3.88281 15.54687,11.82617 c -4.59749,9.27243 -7.25195,19.6788 -7.25195,30.69922 0,22.31673 10.65974,42.20065 27.08008,54.86328 l -15.15235,21.65235 c -28.736,-49.93553 -42.27539,-74.24639 -42.27539,-77.4668 0,-1.50743 9.45355,-18.98655 22.05274,-41.57422 z m 235.81054,16.7793 c 9.88593,0 17.70508,7.81604 17.70508,17.97461 0,10.15843 -7.8198,17.98047 -17.70508,17.98047 -9.88541,0 -17.70703,-7.82128 -17.70703,-17.98047 0,-10.15885 7.82097,-17.97461 17.70703,-17.97461 z m 85.54493,61.23828 c 26.51302,0 47.84573,21.45685 47.8457,48.39258 0,26.93547 -21.33297,48.39256 -47.8457,48.39258 -26.51264,0 -47.83789,-21.45711 -47.83789,-48.39258 0,-26.93573 21.32496,-48.39256 47.83789,-48.39258 z m 338.63083,84.18359 c 17.0535,0 30.7031,13.70581 30.7031,31.09571 0,17.39032 -13.6498,31.09375 -30.7031,31.09375 -17.0537,0 -30.709,-13.70343 -30.709,-31.09375 0,-17.3899 13.6551,-31.09571 30.709,-31.09571 z M 639.87398,760.3495 c 9.88604,0 17.70508,7.81537 17.70508,17.97461 0,10.15888 -7.81904,17.97461 -17.70508,17.97461 -9.88595,0 -17.70508,-7.81573 -17.70508,-17.97461 0,-10.15924 7.81913,-17.97461 17.70508,-17.97461 z" /></svg>
