<?xml version="1.0" encoding="UTF-8" standalone="no"?>
<svg
   width="1200"
   height="400"
   viewBox="0 0 1200 400"
   version="1.1"
   preserveAspectRatio="xMidYMid"
   id="svg28"
   sodipodi:docname="inkscape-template_1200x400.svg"
   inkscape:version="1.3.2 (091e20ef0f, 2023-11-25)"
   xml:space="preserve"
   xmlns:inkscape="http://www.inkscape.org/namespaces/inkscape"
   xmlns:sodipodi="http://sodipodi.sourceforge.net/DTD/sodipodi-0.dtd"
   xmlns:xlink="http://www.w3.org/1999/xlink"
   xmlns="http://www.w3.org/2000/svg"
   xmlns:svg="http://www.w3.org/2000/svg"><defs
     id="defs32"><linearGradient
       id="linearGradient118"
       inkscape:collect="always"><stop
         style="stop-color:#69ceff;stop-opacity:1;"
         offset="0"
         id="stop118" /><stop
         style="stop-color:#0100b7;stop-opacity:1;"
         offset="1"
         id="stop119" /></linearGradient><linearGradient
       inkscape:collect="always"
       xlink:href="#linearGradient118"
       id="linearGradient19"
       x1="634.51007"
       y1="-10.549881"
       x2="645.71576"
       y2="1194.5995"
       gradientUnits="userSpaceOnUse"
       gradientTransform="matrix(0.27335531,0,0,0.27335531,-10.973485,35.987053)" /></defs><sodipodi:namedview
     id="namedview30"
     pagecolor="#ffffff"
     bordercolor="#666666"
     borderopacity="1.0"
     inkscape:pageshadow="2"
     inkscape:pageopacity="0.0"
     inkscape:pagecheckerboard="true"
     showgrid="false"
     inkscape:zoom="0.4308932"
     inkscape:cx="575.54865"
     inkscape:cy="601.07702"
     inkscape:window-width="1920"
     inkscape:window-height="971"
     inkscape:window-x="0"
     inkscape:window-y="40"
     inkscape:window-maximized="1"
     inkscape:current-layer="svg28"
     inkscape:showpageshadow="0"
     inkscape:deskcolor="#505050" /><g
     id="text1"
     style="font-size:659.474px;line-height:1.1;font-family:'Ma Shan Zheng';-inkscape-font-specification:'Ma Shan Zheng';text-align:center;letter-spacing:0px;word-spacing:0px;text-anchor:middle;stroke-width:1.48381;stroke-linecap:square;stroke-linejoin:round"
     aria-label="&#10;HiAI" /><path
     id="rect18"
     style="fill:url(#linearGradient19);stroke-width:2.13256;stroke-linecap:square;stroke-linejoin:round"
     d="m 204.78793,35.987024 c -54.59005,-0.01228 -61.92951,3.042727 -80.14276,33.360021 -10.04263,16.716675 -14.97675,15.056967 44.76461,15.056967 56.76765,0 51.15354,0.708653 56.39768,-7.117384 12.53722,-18.70978 41.66377,-1.542601 31.24046,18.413045 -6.35852,12.173307 -22.04864,13.710497 -30.8048,3.018125 -1.57423,-1.922326 -3.55528,-4.346763 -4.40252,-5.387557 C 218.89822,89.71544 90.055233,91.357997 77.733773,95.167376 43.463033,105.76278 17.785158,131.58783 5.0895987,168.228 -15.726335,228.30367 30.074133,301.45065 92.158603,307.2847 c 10.930847,1.02715 11.363457,2.58385 -9.01592,-32.42143 -9.35426,-16.06772 -22.92002,-39.53058 -30.14596,-52.13986 l -13.13814,-22.92608 16.99821,-29.62061 16.99875,-29.62008 71.941557,-0.45007 5.95509,7.06986 c -1.85496,1.99423 -3.01438,4.64978 -3.01438,7.57066 0,3.17283 1.3613,6.03499 3.50717,8.07039 l -12.56474,20.06493 c -2.32493,-1.04613 -4.89269,-1.64067 -7.59735,-1.64067 -6.74457,0.29036 -10.66185,3.20679 -14.3031,6.37954 l -4.90705,-2.29416 c 1.95533,-3.47056 3.70909,-6.63044 6.07414,-10.71371 7.65012,-13.20797 13.9091,-24.53561 13.9091,-25.17219 0,-0.82662 -7.64649,-1.15695 -26.75466,-1.15695 H 79.346673 l -5.54933,9.53006 c -3.0521,5.24174 -9.59343,16.45026 -14.53588,24.90737 -11.09744,18.98901 -11.4158,14.80903 3.0304,39.74543 21.89239,37.7895 33.40948,57.7303 49.688197,86.03165 26.04737,45.28456 32.26826,51.56161 53.55629,54.03843 28.30478,3.2931 85.81767,0.73036 95.73202,-4.26585 44.80193,-22.57717 34.10345,-91.26149 -15.21234,-97.66368 -6.5417,-0.84925 -25.67328,-1.13254 -44.92636,-1.1009 l -0.56593,-17.08311 c 7.87453,-0.68093 14.41367,-6.15497 16.72966,-13.49371 l 59.68275,11.40138 c -0.024,0.3435 -0.10412,0.67237 -0.10412,1.02187 0,8.07735 6.55626,14.70993 14.60423,14.70993 8.04798,0 14.60314,-6.63258 14.60314,-14.70993 0,-8.07734 -6.55525,-14.70993 -14.60314,-14.70993 -6.63004,0 -12.1841,4.52823 -13.95766,10.63043 l -59.55036,-11.37628 c 0.1355,-0.92612 0.23065,-1.86556 0.23065,-2.82806 0,-2.25583 -0.40543,-4.41596 -1.11371,-6.43506 l 29.97512,-12.02496 c 3.67607,6.17474 10.36472,10.34212 18.01421,10.34212 11.58813,0 21.01473,-9.5339 21.01473,-21.18397 0,-8.61528 -5.1619,-16.0594 -12.53429,-19.35965 l 3.9124,-10.58238 c 6.46236,1.08037 12.84234,-3.83398 12.84234,-10.94168 0,-6.09877 -4.96132,-11.12375 -11.04845,-11.12375 -6.08713,0 -11.05009,5.02498 -11.05009,11.12375 0,4.38741 2.58857,8.18731 6.29625,9.99242 l -3.87768,10.48788 c -1.77296,-0.49242 -3.62956,-0.77789 -5.55521,-0.77789 -5.45896,0 -10.42247,2.1326 -14.16268,5.5883 l -2.53388,-2.00585 c 2.02908,-2.52886 3.29735,-5.69839 3.29735,-9.17876 0,-8.07736 -6.55519,-14.70994 -14.60315,-14.70994 -6.67839,0 -12.26744,4.59376 -13.99718,10.7639 l -18.53103,-2.81683 1.52908,-20.67571 c 27.18714,-0.3297 43.58272,-0.72357 45.78487,-1.45914 45.79044,-15.29476 51.27412,-75.562731 8.75751,-96.248834 -10.8108,-5.259906 -16.4105,-5.847052 -55.82747,-5.856312 z m -1.8318,103.595786 -1.49171,20.17651 -30.66225,-4.65986 c 0.17171,-5.76939 -4.29101,-11.47611 -11.01429,-11.47611 -2.05722,0 -3.96336,0.61114 -5.61553,1.60649 l -4.33685,-5.1489 10.96038,-0.0683 c 20.65529,-0.12925 29.55021,-0.28582 42.16025,-0.42979 z m 76.30511,8.38753 c 2.70239,0 4.83869,2.13641 4.83869,4.91345 0,2.77705 -2.13652,4.91506 -4.83869,4.91506 -2.70217,0 -4.83978,-2.13801 -4.83978,-4.91506 0,-2.77704 2.13739,-4.91345 4.83978,-4.91345 z m -119.47336,1.8633 c 2.70237,0 4.84031,2.13657 4.84031,4.91345 0,2.77687 -2.13811,4.91506 -4.84031,4.91506 -2.70223,0 -4.83978,-2.13802 -4.83978,-4.91506 0,-2.77705 2.13736,-4.91345 4.83978,-4.91345 z m 10.45904,8.32186 30.98739,4.7095 -3.01705,40.80042 c -4.24593,0.15377 -8.14395,1.6918 -11.26416,4.19002 l -2.85849,-2.92095 c 1.52722,-1.9104 2.48103,-4.30014 2.48102,-6.91984 0,-6.0989 -4.96296,-11.12374 -11.05007,-11.12374 -6.08713,0 -11.05006,5.02493 -11.05006,11.12374 0,6.09869 4.96279,11.12535 11.05006,11.12535 2.3587,0 4.53582,-0.7705 6.33363,-2.04963 l 2.83659,2.89906 c -3.1396,3.46201 -5.07309,8.04855 -5.07309,13.07994 0,10.19457 7.8777,18.60775 17.83376,19.36392 l 0.56593,17.06015 c -24.11144,0.0941 -47.64997,0.74056 -47.64444,1.8681 0.004,0.99168 5.71668,11.77138 12.69608,23.95489 l 12.69019,22.15193 22.8241,0.27709 22.82464,0.27709 2.64653,-4.19215 c 10.6779,-16.91483 34.53858,-10.92629 34.71507,8.71267 0.17776,19.77379 -23.76322,24.95478 -34.8715,7.54663 l -2.46554,-3.86383 h -24.555 c -22.10179,0 -24.71157,-0.18006 -26.12251,-1.80297 -0.86216,-0.9917 -6.44306,-10.38014 -12.4019,-20.86362 -5.95884,-10.48349 -15.13667,-26.47953 -20.3954,-35.54633 -5.25876,-9.0668 -11.84748,-20.42592 -14.64159,-25.24266 -2.56671,-4.42471 -3.09938,-5.41427 -5.01917,-8.74043 l 5.03679,-7.19586 c 2.61364,1.39892 5.58637,2.20072 8.74416,2.20072 3.00187,0 5.83278,-0.73481 8.35122,-2.00745 l 15.80816,23.7771 c -2.06168,2.02641 -3.35287,4.84053 -3.35287,7.94173 0,6.0987 4.96293,11.12374 11.05006,11.12374 6.08715,0 11.05007,-5.02504 11.05007,-11.12374 0,-6.0988 -4.96292,-11.12375 -11.05007,-11.12375 -1.87927,0 -3.62415,0.52304 -5.17613,1.36464 l -15.68162,-23.58544 c 4.68762,-3.44442 7.75271,-9.00475 7.75271,-15.26251 0,-6.55853 -3.35886,-12.36086 -8.4329,-15.75264 l 12.38695,-19.78196 c 1.50856,0.78253 3.19212,1.26801 4.99941,1.26801 4.89536,0 9.01439,-3.27209 10.45904,-7.71694 z m 66.82523,0.33474 c 4.66164,0 8.39286,3.74595 8.39286,8.49965 0,4.75368 -3.7311,8.49964 -8.39286,8.49964 -4.66171,0 -8.39233,-3.74595 -8.39233,-8.49964 0,-4.7537 3.73075,-8.49965 8.39233,-8.49965 z m -32.75886,4.84245 18.24487,2.77253 c -0.49372,8.22416 5.82664,15.5946 14.51399,15.5946 3.45896,0 6.59958,-1.2754 9.10509,-3.31389 l 2.59366,2.05443 c -2.94126,3.64714 -4.71217,8.28635 -4.71217,13.32714 0,2.85072 0.57124,5.57226 1.59368,8.06077 L 215.8428,213.7865 c -2.90935,-5.35983 -8.25477,-9.1913 -14.52253,-9.98654 z m 60.76122,15.4638 c 8.20112,0 14.80443,6.64719 14.80443,14.97261 0,8.32544 -6.60339,14.97208 -14.80443,14.97208 -8.20104,0 -14.80549,-6.64664 -14.80549,-14.97208 0,-8.32542 6.6044,-14.97261 14.80549,-14.97261 z m -132.99162,8.65661 c 6.95069,0 12.54124,5.62234 12.54124,12.68593 0,7.06348 -5.59055,12.68539 -12.54124,12.68539 -6.95067,0 -12.53964,-5.62179 -12.53964,-12.68539 0,-7.06369 5.58897,-12.68593 12.53964,-12.68593 z m -21.01739,1.06138 4.24982,3.23275 c -1.25675,2.53467 -1.98236,5.37931 -1.98236,8.3918 0,6.10039 2.9139,11.53577 7.40248,14.99717 l -4.14197,5.91878 c -7.85514,-13.65014 -11.5562,-20.29565 -11.5562,-21.17596 0,-0.41207 2.58417,-5.19008 6.02823,-11.36454 z m 64.46006,4.58671 c 2.70237,0 4.83978,2.13656 4.83978,4.91346 0,2.77686 -2.13759,4.91506 -4.83978,4.91506 -2.70223,0 -4.84031,-2.13799 -4.84031,-4.91506 0,-2.77698 2.1379,-4.91346 4.84031,-4.91346 z m 23.38416,16.73982 c 7.24748,0 13.07889,5.86534 13.07888,13.22836 0,7.36295 -5.83148,13.22836 -13.07888,13.22837 -7.24737,0 -13.07674,-5.86542 -13.07674,-13.22837 0,-7.36302 5.82929,-13.22836 13.07674,-13.22836 z m 92.56654,23.01203 c 4.66166,0 8.39284,3.74655 8.39284,8.50017 0,4.75374 -3.73123,8.49965 -8.39284,8.49965 -4.66172,0 -8.39447,-3.74591 -8.39447,-8.49965 0,-4.75362 3.7327,-8.50017 8.39447,-8.50017 z m -127.5368,10.97959 c 2.7024,0 4.83978,2.13637 4.83978,4.91346 0,2.77698 -2.13738,4.91345 -4.83978,4.91345 -2.70237,0 -4.83978,-2.13647 -4.83978,-4.91345 0,-2.77709 2.13741,-4.91346 4.83978,-4.91346 z m 520.85712,119.71295 h 46.79416 V 35.986483 H 684.79658 Z M 985.68312,66.402684 c -6.5512,-17.781779 -23.865,-29.948259 -43.5185,-29.948259 -20.1215,0 -37.43535,12.634422 -43.98658,29.948259 L 778.38503,364.01352 h 50.06974 L 942.16462,83.248581 1055.4064,364.01352 h 50.5377 z M 1153.2058,363.54558 H 1200 V 35.986483 h -46.7942 z m -753.85311,0 V 35.986483 H 352.55853 V 363.54558 Z M 563.13223,176.36896 H 434.4483 l -11.69853,46.79415 h 140.38246 v 140.38247 h 46.79416 V 35.986483 h -46.79416 z" /></svg>
